<?xml version="1.0" encoding="UTF-8" standalone="no"?>
<!-- Created with Inkscape (http://www.inkscape.org/) -->

<svg
   width="58.114994mm"
   height="14.433789mm"
   viewBox="0 0 58.114996 14.433789"
   version="1.1"
   id="svg5"
   sodipodi:docname="logo.svg"
   inkscape:export-filename="logo.svg"
   inkscape:export-xdpi="96"
   inkscape:export-ydpi="96"
   inkscape:version="1.2.1 (9c6d41e410, 2022-07-14)"
   xmlns:inkscape="http://www.inkscape.org/namespaces/inkscape"
   xmlns:sodipodi="http://sodipodi.sourceforge.net/DTD/sodipodi-0.dtd"
   xmlns="http://www.w3.org/2000/svg"
   xmlns:svg="http://www.w3.org/2000/svg">
  <sodipodi:namedview
     id="namedview7"
     pagecolor="#ffffff"
     bordercolor="#999999"
     borderopacity="1"
     inkscape:showpageshadow="0"
     inkscape:pageopacity="0"
     inkscape:pagecheckerboard="0"
     inkscape:deskcolor="#d1d1d1"
     inkscape:document-units="mm"
     showgrid="false"
     inkscape:zoom="1.4641334"
     inkscape:cx="402.62726"
     inkscape:cy="135.23358"
     inkscape:window-width="1920"
     inkscape:window-height="1009"
     inkscape:window-x="-8"
     inkscape:window-y="-8"
     inkscape:window-maximized="1"
     inkscape:current-layer="text113" />
  <defs
     id="defs2" />
  <g
     id="layer1"
     transform="translate(-23.844433,-73.117527)">
    <g
       aria-label="Carlos Plazas"
       id="text113"
       style="font-weight:300;font-stretch:condensed;font-size:22.5778px;font-family:'Gotham Condensed';-inkscape-font-specification:'Gotham Condensed,  Light Condensed';text-align:center;text-anchor:middle;fill:#ffffff;stroke-width:0.264583"
       transform="translate(2.3492282,43.731786)"
       inkscape:export-filename="..\..\..\..\carlos.plazas.nextjs\public\images\logo.svg"
       inkscape:export-xdpi="96"
       inkscape:export-ydpi="96">
      <g
         id="g924"
         inkscape:export-filename="..\..\..\..\carlos.plazas.nextjs\public\images\logo.svg"
         inkscape:export-xdpi="233.65025"
         inkscape:export-ydpi="233.65025"
         transform="matrix(0.38235117,0,0,0.38235117,13.276488,18.150068)">
        <path
           d="m 28.742679,67.135825 q -2.122314,0 -3.747915,-1.12889 -1.603024,-1.12889 -2.551292,-3.070581 -0.496712,-0.993424 -0.72249,-2.144891 -0.225778,-1.12889 -0.225778,-2.415825 0,-1.828802 0.451556,-3.838226 0.428979,-2.032002 1.219202,-4.10916 0.790223,-2.077158 1.896535,-4.154315 1.106312,-2.077158 2.438402,-4.018849 1.354669,-1.941691 2.889959,-3.657604 1.557868,-1.73849 3.206048,-3.138314 1.557868,-1.309512 2.980269,-2.212624 1.422402,-0.92569 2.686759,-1.490135 1.264357,-0.587023 2.348091,-0.835379 1.106312,-0.270933 2.032002,-0.270933 1.038579,0 1.85138,0.316089 0.8128,0.293511 1.354668,0.835378 0.564445,0.51929 0.835378,1.241779 0.293512,0.72249 0.293512,1.557869 0,0.541867 -0.09031,0.993423 -0.203201,1.061157 -0.903112,2.641603 -0.677335,1.580446 -1.670758,3.364092 -0.970845,1.761068 -2.167469,3.522137 -1.174045,1.761068 -2.370669,3.18347 -1.174045,1.422401 -2.280358,2.302935 -1.106312,0.880535 -1.919113,0.880535 -0.519289,0 -0.880534,-0.293512 -0.338667,-0.316089 -0.564445,-0.745067 -0.2032,-0.451556 -0.293511,-0.948268 -0.09031,-0.519289 -0.09031,-0.92569 0,-1.12889 0.338667,-2.415824 0.338667,-1.309513 0.857956,-2.551292 0.519289,-1.241779 1.151468,-2.302935 0.654756,-1.061157 1.286934,-1.693336 0.383823,-0.383822 0.72249,-0.541867 0.338667,-0.158044 0.632178,-0.158044 0.451556,0 0.72249,0.316089 0.293512,0.316089 0.293512,0.767645 v 0.06773 q -0.02258,0.496712 -0.338667,0.903113 -0.31609,0.4064 -0.790224,1.061156 -0.451556,0.654756 -0.993423,1.715913 -0.541867,1.038579 -0.993423,2.844803 -0.06773,0.293511 -0.158045,0.632178 -0.06773,0.338667 -0.135466,0.632179 -0.06773,0.270933 -0.112889,0.474134 -0.02258,0.2032 -0.02258,0.248355 v 0.02258 q 0.02258,0 0.158044,-0.135467 0.158045,-0.158044 0.361245,-0.383822 0.225778,-0.248356 0.474134,-0.541867 0.248356,-0.31609 0.496712,-0.609601 0.903112,-1.106312 1.761068,-2.325514 0.880534,-1.219201 1.670757,-2.46098 0.790223,-1.241779 1.467557,-2.438402 0.677334,-1.219202 1.151468,-2.280358 0.496712,-1.083735 0.767645,-1.964269 0.293512,-0.880534 0.293512,-1.467557 0,-0.383823 -0.135467,-0.609601 -0.135467,-0.248355 -0.383823,-0.361244 -0.225778,-0.112889 -0.541867,-0.135467 -0.293511,-0.04516 -0.6096,-0.04516 -1.151468,0 -2.641603,0.609601 -1.467557,0.6096 -3.093159,1.715913 -1.625601,1.083734 -3.318936,2.619025 -1.670758,1.53529 -3.273782,3.409248 -1.580446,1.851379 -2.980269,3.99627 -1.399824,2.122314 -2.438403,4.402671 -1.038579,2.280358 -1.670757,4.651027 -0.609601,2.370669 -0.609601,4.741339 0,1.603023 0.383823,2.754491 0.383823,1.151468 1.038579,1.896535 0.677334,0.745068 1.580446,1.106313 0.903112,0.361245 1.941691,0.361245 1.196623,0 2.325513,-0.383823 1.12889,-0.383823 2.167469,-1.061157 1.061157,-0.654756 2.032002,-1.512712 0.993423,-0.857957 1.85138,-1.806224 0.880534,-0.92569 1.648179,-1.896536 0.767645,-0.970845 1.422402,-1.828802 1.196623,-1.603023 1.941691,-2.844802 0.767645,-1.264357 1.241779,-2.122314 0.496711,-0.880534 0.767645,-1.33209 0.293511,-0.474134 0.541867,-0.474134 0.248356,0 0.338667,0.225778 0.112889,0.2032 0.112889,0.428978 0,0.51929 -0.338667,1.377246 -0.338667,0.835379 -0.92569,1.873958 -0.564445,1.038579 -1.33209,2.212624 -0.767645,1.151468 -1.648179,2.325514 -0.857957,1.151468 -1.783647,2.235202 -0.92569,1.106312 -1.806224,1.986846 -2.46098,2.460981 -4.71876,3.544715 -2.235202,1.083735 -4.154315,1.083735 z"
           style="font-weight:normal;font-stretch:normal;font-family:'Black Lagoon';-inkscape-font-specification:'Black Lagoon';fill:#ffffff"
           id="path441"
           inkscape:export-filename="..\..\..\..\carlos.plazas.nextjs\public\images\logo.svg"
           inkscape:export-xdpi="96"
           inkscape:export-ydpi="96" />
        <path
           d="m 59.674257,52.234476 q 0.428978,0.270934 0.428978,0.609601 0,0.09031 -0.112889,0.383822 -0.09031,0.270934 -0.654756,0.677334 -0.564445,0.383823 -1.399824,0.654757 -0.812801,0.270933 -1.625602,0.270933 -0.474134,0 -0.903112,-0.112889 -0.428978,-0.112889 -0.767645,-0.361245 -0.316089,-0.270933 -0.519289,-0.677334 -0.180623,-0.4064 -0.180623,-0.993423 0,-0.06773 -0.04516,-0.06773 -0.09031,0 -0.428979,0.316089 -0.338667,0.293511 -0.993423,0.92569 -0.632178,0.632178 -1.467557,1.399823 -0.812801,0.745068 -1.648179,1.377246 -0.812801,0.609601 -1.44498,0.903112 -0.632178,0.293512 -1.016001,0.293512 -0.225778,0 -0.428978,-0.06773 -0.767645,-0.270933 -0.857956,-0.699912 -0.09031,-0.451556 -0.09031,-0.677334 0,-0.496711 0.270933,-1.219201 0.248356,-0.745067 0.880534,-1.73849 0.609601,-1.016002 1.354668,-1.986847 0.745068,-0.970845 1.512713,-1.828802 0.767645,-0.857956 1.33209,-1.422401 0.338667,-0.361245 0.790223,-0.72249 0.451556,-0.361245 0.92569,-0.654756 0.474134,-0.316089 0.948268,-0.496712 0.496711,-0.2032 0.92569,-0.2032 0.316089,0 0.564445,0.09031 0.248355,0.09031 0.451556,0.338667 0.270933,0.293512 0.293511,0.51929 0.02258,0.2032 0.02258,0.293511 0,0.248356 -0.09031,0.541867 -0.06773,0.293512 -0.248356,0.609601 -0.158045,0.316089 -0.293512,0.564445 -0.135466,0.225778 -0.2032,0.338667 -0.04515,0.112889 -0.04515,0.135467 0,0.04515 0.04515,0.04515 0.225778,0 0.496712,0.248356 0.270933,0.248356 0.338667,0.496712 0.06773,0.248356 0.06773,0.541867 0,0.158045 -0.04515,0.496712 -0.04516,0.316089 -0.09031,0.6096 -0.02258,0.293512 -0.02258,0.428978 0,0.248356 0.06773,0.474134 0.06773,0.225778 0.474134,0.225778 0.180622,0 0.496712,-0.06773 0.338667,-0.09031 0.699911,-0.2032 0.383823,-0.112889 0.72249,-0.248356 0.361245,-0.158045 0.609601,-0.293512 0.361244,-0.180622 0.564445,-0.180622 0.158044,0 0.338667,0.112889 z m -6.005695,-1.964269 q 0.02258,-0.02258 0.02258,-0.06773 0,-0.02258 -0.06773,-0.04516 -0.04516,-0.04515 -0.135467,-0.135466 -0.09031,-0.112889 -0.112889,-0.225778 -0.02258,-0.112889 -0.02258,-0.158045 0,-0.180622 0.112889,-0.474134 l 0.112889,-0.293511 -0.2032,0.158044 q -0.2032,0.158045 -0.496711,0.474134 -0.293512,0.293512 -0.632179,0.677334 -0.316089,0.361245 -0.677334,0.790223 -0.338667,0.428978 -0.677334,0.857957 -0.790223,0.970845 -1.648179,2.122313 0.06773,-0.06773 0.09031,-0.06773 0.04516,-0.02258 0.135467,-0.09031 0.09031,-0.06773 0.293511,-0.225778 0.2032,-0.158044 0.609601,-0.474133 0.654756,-0.51929 1.12889,-0.92569 0.496711,-0.406401 0.880534,-0.745068 0.383823,-0.338667 0.677334,-0.6096 0.316089,-0.293512 0.609601,-0.541868 z"
           style="font-weight:normal;font-stretch:normal;font-family:'Black Lagoon';-inkscape-font-specification:'Black Lagoon';fill:#ffffff"
           id="path443" />
        <path
           d="m 66.921735,47.47056 q 0.338667,0.06773 0.587023,0.293512 0.248356,0.2032 0.383822,0.474133 0.135467,0.248356 0.135467,0.496712 0,0.02258 -0.02258,0.180622 0,0.135467 -0.2032,0.338667 -0.180622,0.180623 -0.428978,0.180623 -0.248356,0 -0.451556,-0.135467 -0.180622,-0.135467 -0.2032,-0.158045 -0.02258,-0.06773 -0.135467,-0.06773 -0.293511,0 -1.106312,0.541867 -0.812801,0.51929 -1.85138,1.399824 -1.016001,0.880534 -2.144891,2.032002 -1.106312,1.151468 -2.032002,2.415825 -0.270934,0.361244 -0.587023,0.767645 -0.293511,0.4064 -0.6096,0.745067 -0.31609,0.316089 -0.564445,0.451556 -0.248356,0.112889 -0.406401,0.112889 -0.158044,0 -0.293511,-0.06773 -0.474134,-0.2032 -0.474134,-0.406401 -0.02258,-0.2032 -0.02258,-0.2032 0,-0.383822 0.270934,-0.92569 0.248356,-0.564445 0.722489,-1.309512 0.451556,-0.767645 0.948268,-1.693335 0.790223,-1.444979 1.377246,-2.370669 0.6096,-0.948268 1.174045,-0.948268 0.225778,0 0.51929,0.248356 0.248356,0.225778 0.248356,0.338667 0,0.112889 0.04516,0.270934 0.2032,-0.180623 0.767646,-0.72249 0.587022,-0.564445 1.309512,-1.106312 0.745067,-0.564445 1.444979,-0.880534 0.699912,-0.338667 1.241779,-0.338667 0.180623,0 0.361245,0.04516 z"
           style="font-weight:normal;font-stretch:normal;font-family:'Black Lagoon';-inkscape-font-specification:'Black Lagoon';fill:#ffffff"
           id="path445" />
        <path
           d="m 84.509841,32.0725 q 0.338667,0.361245 0.338667,0.880534 0,0.135467 -0.06773,0.564445 -0.04515,0.406401 -0.428978,1.264357 -0.383823,0.835379 -0.993423,1.761069 -0.609601,0.903112 -1.264357,1.761068 -0.654756,0.857956 -1.264357,1.580446 -0.587023,0.72249 -0.970845,1.174046 -1.85138,2.212624 -3.318937,3.815648 -1.467557,1.603024 -2.596447,2.731914 -1.106312,1.106312 -1.896535,1.806224 -0.767646,0.677334 -1.286935,1.061157 -0.496712,0.383822 -0.745068,0.519289 -0.225778,0.135467 -0.248355,0.158045 0,0 -0.338667,0.699911 -0.338667,0.677334 -0.835379,1.738491 -0.496712,1.038579 -1.083734,2.302936 -0.587023,1.264357 -1.083735,2.438402 -0.496711,1.151468 -0.812801,2.009425 -0.316089,0.880534 -0.316089,1.241779 0,0.02258 0,0.04516 0,0.338667 -0.135467,0.609601 -0.135466,0.293511 -0.338667,0.474134 -0.225778,0.180622 -0.4064,0.225778 -0.2032,0.06773 -0.338667,0.06773 -0.135467,0 -0.270934,-0.04516 -0.519289,-0.135466 -0.6096,-0.541867 -0.112889,-0.4064 -0.112889,-0.745067 0,-0.338667 0.112889,-0.948268 0.112889,-0.6096 0.496711,-1.603024 0.361245,-0.970845 0.812801,-1.986846 0.428978,-1.016001 0.92569,-1.986847 0.474134,-0.970845 0.857956,-1.73849 0.361245,-0.767645 0.541868,-1.196624 0.2032,-0.428978 0.2032,-0.541867 0,-0.04516 -0.02258,-0.06773 -0.180622,-0.180623 -0.2032,-0.338667 -0.02258,-0.158045 -0.02258,-0.203201 0,-0.2032 0.112889,-0.338667 0.135467,-0.180622 0.248356,-0.248355 0.112889,-0.09031 0.2032,-0.112889 0.112889,-0.02258 0.180622,-0.02258 0.04516,0 0.112889,0.02258 0.06773,0 0.158045,0 0.4064,-0.654757 1.241779,-2.077158 0.857956,-1.444979 2.009424,-3.251203 1.151468,-1.828802 2.506136,-3.838226 1.377246,-2.032003 2.844803,-3.860804 1.467557,-1.828802 2.935114,-3.273782 1.467557,-1.444979 2.799647,-2.122313 0.293512,-0.135467 0.609601,-0.225778 0.316089,-0.09031 0.632179,-0.09031 0.316089,0 0.587022,0.112889 0.293512,0.09031 0.541868,0.338667 z M 73.085473,46.635182 q 2.619025,-2.596448 4.402672,-4.605872 1.806224,-2.032002 2.957691,-3.544715 1.174046,-1.512712 1.783647,-2.551291 0.632178,-1.038579 0.92569,-1.670757 0.293511,-0.654757 0.338667,-0.948268 0.04515,-0.293511 0.04515,-0.293511 0,0 -0.270933,0.09031 -0.270934,0.09031 -0.812801,0.451556 -0.51929,0.361245 -1.332091,1.106312 -0.8128,0.72249 -1.919113,2.009424 -1.106312,1.264357 -2.506135,3.18347 -1.399824,1.919113 -3.093159,4.673605 -1.241779,1.964269 -1.715913,2.754492 -0.474134,0.790223 -0.474134,0.903112 0,0.02258 0.02258,0.02258 0.09031,0 0.496712,-0.428979 0.428978,-0.428978 1.151467,-1.151467 z"
           style="font-weight:normal;font-stretch:normal;font-family:'Black Lagoon';-inkscape-font-specification:'Black Lagoon';fill:#ffffff"
           id="path447" />
        <path
           d="m 83.855071,51.331364 q 0.338667,0.225778 0.338667,0.496712 0,0.04515 -0.04515,0.225778 -0.02258,0.180622 -0.428978,0.496711 -0.383823,0.31609 -1.016001,0.632179 -0.609601,0.293511 -1.309513,0.519289 -0.699912,0.225778 -1.399824,0.361245 -0.699911,0.135467 -1.219201,0.135467 -0.428978,0 -0.564445,0 -0.135467,0 -0.248356,0.180622 -0.112889,0.180623 -0.383822,0.632179 -0.248356,0.428978 -0.948268,1.309512 -0.248356,0.316089 -0.6096,0.699912 -0.338668,0.361245 -0.745068,0.699912 -0.4064,0.316089 -0.835379,0.541867 -0.428978,0.2032 -0.835378,0.2032 -0.225778,0 -0.428978,-0.06773 -0.451556,-0.158045 -0.677334,-0.474134 -0.225778,-0.316089 -0.270934,-0.632179 -0.06773,-0.338667 -0.06773,-0.6096 0,-0.158045 0.04515,-0.474134 0.02258,-0.338667 0.158045,-0.790223 0.158044,-0.564445 0.451556,-1.264357 0.293511,-0.722489 0.677334,-1.467557 0.4064,-0.767645 0.857956,-1.467557 0.451556,-0.72249 0.948268,-1.241779 0.519289,-0.541867 0.970845,-0.790223 0.451556,-0.248356 0.835379,-0.248356 0.135467,0 0.248356,0.02258 0.09031,0.02258 0.180622,0.02258 0.112889,0 0.270934,-0.04516 0.158044,-0.04516 0.361245,-0.04516 0.04516,0 0.180622,0.02258 0.135467,0 0.361245,0.158045 0.248356,0.135467 0.451556,0.564445 0.158044,0.293511 0.158044,0.699912 0,0.09031 -0.02258,0.383822 -0.02258,0.270934 -0.135467,0.72249 -0.09031,0.451556 -0.2032,0.767645 -0.112889,0.316089 -0.112889,0.361245 0,0.02258 0.135466,0.02258 0.04516,0 0.225778,0 0.203201,-0.02258 0.699912,-0.112889 0.51929,-0.112889 1.219201,-0.338667 0.699912,-0.248356 1.535291,-0.654756 0.587023,-0.270934 0.835379,-0.270934 0.225778,0 0.361244,0.112889 z m -9.008542,4.380093 q 0.2032,-0.225778 0.496711,-0.587022 0.31609,-0.361245 0.587023,-0.72249 0.270934,-0.383823 0.451556,-0.654756 0.203201,-0.293512 0.203201,-0.361245 0,-0.02258 -0.04516,-0.112889 -0.04516,-0.112889 -0.09031,-0.225778 -0.180623,-0.338667 -0.2032,-0.587023 0,-0.270934 -0.06773,-0.270934 -0.06773,0 -0.293511,0.31609 -0.406401,0.564445 -0.72249,1.241779 -0.316089,0.654756 -0.541867,1.241779 -0.225778,0.564445 -0.361245,0.970845 -0.112889,0.383823 -0.112889,0.383823 0.04516,-0.04516 0.2032,-0.158045 0.180623,-0.135467 0.496712,-0.474134 z"
           style="font-weight:normal;font-stretch:normal;font-family:'Black Lagoon';-inkscape-font-specification:'Black Lagoon';fill:#ffffff"
           id="path449" />
        <path
           d="m 92.186278,52.031276 q 0.112889,0.158044 0.112889,0.316089 0,0.112889 -0.112889,0.316089 -0.112889,0.180623 -0.451556,0.383823 -0.338667,0.2032 -0.790223,0.383823 -0.428979,0.158044 -0.767646,0.270933 -0.767645,0.248356 -1.377245,0.383823 -0.587023,0.112889 -1.016001,0.158044 -0.406401,0.02258 -0.654757,0.02258 -0.248356,0 -0.316089,0 -0.361245,0.632179 -0.745067,1.33209 -0.383823,0.699912 -0.790223,1.264357 -0.383823,0.564445 -0.72249,0.857957 -0.316089,0.270933 -0.587023,0.270933 -0.112889,0 -0.225778,-0.04516 -0.316089,-0.112889 -0.428978,-0.383823 -0.112889,-0.293511 -0.2032,-0.790223 -0.09031,-0.496712 -0.270934,-1.241779 -0.180622,-0.745067 -0.632178,-1.783646 -0.2032,-0.451556 -0.316089,-0.745068 -0.112889,-0.293511 -0.158045,-0.451556 -0.04516,-0.180622 -0.04516,-0.293511 0,-0.04516 0.02258,-0.135467 0,-0.09031 0.06773,-0.225778 0.112889,-0.225778 0.270933,-0.316089 0.180623,-0.112889 0.361245,-0.112889 0.338667,0 0.474134,0.248356 0.09031,0.158044 0.270933,0.248355 0.180623,0.06773 0.225778,0.112889 0.04516,-0.04516 0.270934,-0.293511 0.248356,-0.248356 0.587023,-0.587023 0.361245,-0.338667 0.767645,-0.699912 0.428978,-0.383822 0.835379,-0.699911 0.428978,-0.31609 0.8128,-0.51929 0.406401,-0.225778 0.677335,-0.225778 0.541867,0 0.745067,0.293512 0.2032,0.270933 0.2032,0.519289 0.02258,0.225778 0.02258,0.248356 0,0.428978 -0.158045,0.903112 -0.135466,0.474134 -0.293511,0.92569 -0.158045,0.428978 -0.293511,0.699912 -0.112889,0.270933 -0.112889,0.316089 0,0.02258 0,0.02258 0.02258,0 0.04515,0 0.112889,0 0.428978,-0.04516 0.338667,-0.04516 0.903112,-0.180622 0.564445,-0.135467 1.196624,-0.31609 0.632178,-0.2032 1.151468,-0.451556 0.4064,-0.2032 0.632178,-0.2032 0.248356,0 0.383823,0.248356 z m -6.254051,0.632178 q 0.316089,-0.767645 0.428978,-1.038579 0.135467,-0.270933 0.135467,-0.361244 0,-0.04516 -0.04516,-0.04516 -0.09031,0 -0.338667,0.225778 -0.225778,0.225778 -0.677334,0.609601 -0.428978,0.383822 -0.451556,0.451556 0,0.04516 0,0.04516 0,0.112889 0.338667,0.203201 0.158045,0.04516 0.248356,0.06773 0.09031,0.02258 0.158045,0.02258 0.135466,0 0.2032,-0.180623 z m -1.512713,3.115737 q 0.09031,-0.180623 0.248356,-0.451556 0.158045,-0.293512 0.293511,-0.564445 0.158045,-0.270934 0.248356,-0.474134 0.112889,-0.225778 0.112889,-0.225778 0,-0.04516 -0.248356,-0.09031 -0.248355,-0.06773 -0.722489,-0.225778 -0.609601,-0.2032 -0.767645,-0.2032 -0.135467,0 -0.135467,0.09031 0,0.02258 0.02258,0.112889 0.02258,0.06773 0.135466,0.361245 0.112889,0.293511 0.270934,0.745067 0.158045,0.451556 0.248356,1.083734 0.04516,0.225778 0.06773,0.225778 0,0 0,0 0.02258,-0.02258 0.225778,-0.383822 z"
           style="font-weight:normal;font-stretch:normal;font-family:'Black Lagoon';-inkscape-font-specification:'Black Lagoon';fill:#ffffff"
           id="path451" />
        <path
           d="m 106.45548,66.97778 q -0.15805,0 -0.24836,-0.02258 h 0.0226 q -0.92569,-0.225778 -0.92569,-1.444979 0,-1.264357 0.8128,-3.567293 0.83538,-2.280357 2.21263,-5.667028 l -0.11289,-0.270933 q -0.33867,-0.880534 -1.12889,-1.490135 -0.76765,-0.632178 -1.78365,-1.151468 -0.99342,-0.519289 -2.14489,-0.970845 -1.12889,-0.474134 -2.19005,-1.038579 -1.061154,-0.587023 -1.986844,-1.33209 -0.903112,-0.745068 -1.444979,-1.806224 -0.587023,-1.151468 -0.587023,-2.460981 0,-1.377246 0.6096,-2.799647 0.609601,-1.422401 1.670758,-2.822225 1.083738,-1.422402 2.528718,-2.754492 1.46755,-1.354668 3.18347,-2.528713 1.73849,-1.196624 3.63502,-2.190047 1.89654,-1.016001 3.81565,-1.738491 1.94169,-0.722489 3.83823,-1.12889 1.91911,-0.4064 3.63502,-0.4064 l 0.79022,0.02258 q 2.1449,0.135466 3.68019,0.835378 1.55786,0.699912 2.52871,1.828802 0.99342,1.12889 1.44498,2.596447 0.47413,1.467557 0.47413,3.115737 0,1.693335 -0.45155,3.476981 -0.45156,1.783646 -1.30952,3.499559 -0.85795,1.715913 -2.07715,3.273781 -1.19663,1.535291 -2.70934,2.754492 -1.51271,1.219201 -3.29636,2.009424 -1.76107,0.790223 -3.74791,0.970846 -0.18063,0.02258 -0.36125,0.02258 -0.15804,0 -0.31609,0 -0.47413,0 -0.79022,-0.04516 -0.31609,-0.06773 -0.54187,-0.135467 -0.22578,-0.09031 -0.36124,-0.135467 -0.11289,-0.06773 -0.22578,-0.06773 -0.0903,0 -0.18062,0.09031 -0.0677,0.09031 -0.18063,0.316089 -0.11288,0.225778 -0.29351,0.609601 -0.15804,0.383822 -0.42897,0.993423 -0.40641,0.92569 -0.60961,1.422401 -0.2032,0.474134 -0.29351,0.745068 -0.0677,0.248356 -0.0677,0.428978 0,0.158045 -0.0226,0.451556 0,0.270934 -0.0903,0.790223 -0.0903,0.541867 -0.33867,1.535291 -0.0903,0.4064 -0.29351,1.016001 -0.18062,0.632178 -0.45155,1.309512 -0.24836,0.677334 -0.56445,1.377246 -0.31609,0.699912 -0.69991,1.241779 -0.36125,0.541867 -0.79022,0.880534 -0.4064,0.361245 -0.83538,0.361245 z m 2.88996,-13.185436 q 0.0226,0 0.13546,-0.248355 0.11289,-0.248356 0.27094,-0.587023 0.29351,-0.632179 0.69991,-1.467557 0.4064,-0.835379 0.88053,-1.761069 0.49671,-0.948267 1.03858,-1.941691 0.56445,-0.993423 1.12889,-1.896535 0.56445,-0.903112 1.10631,-1.670757 0.56445,-0.767645 1.06116,-1.264357 0.49671,-0.496712 1.08374,-0.496712 0.4064,0 0.72248,0.270934 0.33867,0.248356 0.42898,0.767645 v 0.04516 q 0,0.158044 -0.11289,0.677334 -0.0903,0.496711 -0.2032,1.061156 -0.11289,0.541868 -0.22577,0.993424 -0.11289,0.451556 -0.13547,0.519289 -0.13547,0.248356 -0.36125,0.383823 -0.2032,0.112889 -0.45155,0.112889 -0.24836,0 -0.49671,-0.158045 l -0.13547,-0.09031 q 0,0 -0.2032,0.338667 -0.18062,0.338667 -0.45156,0.857956 -0.27093,0.51929 -0.6096,1.12889 -0.33866,0.609601 -0.6096,1.151468 -0.27093,0.51929 -0.47413,0.903112 -0.18062,0.383823 -0.18062,0.451556 v 0.02258 q 0.42897,0.248356 1.10631,0.248356 0.88053,0 2.07716,-0.383823 1.19662,-0.383822 2.50613,-1.12889 1.30951,-0.745067 2.6416,-1.828802 1.33209,-1.083734 2.43841,-2.506136 1.12889,-1.444979 1.91911,-3.183469 0.79022,-1.761069 1.06116,-3.815649 0.0452,-0.428978 0.0677,-0.812801 0.0452,-0.383822 0.0452,-0.767645 0,-1.715913 -0.54187,-2.935114 -0.51929,-1.219201 -1.46756,-1.986846 -0.92569,-0.767646 -2.21262,-1.106313 -1.26436,-0.361244 -2.77707,-0.361244 -2.07716,0 -4.47041,0.6096 -2.39324,0.609601 -4.74134,1.64818 -2.34809,1.038579 -4.51556,2.46098 -2.16746,1.399824 -3.83822,3.002847 -1.64818,1.603024 -2.641604,3.318937 -0.993423,1.693335 -0.993423,3.364092 0,1.038579 0.519289,1.806225 0.541867,0.745067 1.377248,1.354668 0.85795,0.587022 1.91911,1.083734 1.08374,0.474134 2.16747,0.970845 1.10631,0.474134 2.12231,1.038579 1.016,0.541867 1.73849,1.286935 0.22578,0.2032 0.38383,0.361245 0.18062,0.158044 0.2032,0.158044 z"
           style="font-weight:normal;font-stretch:normal;font-family:'Black Lagoon';-inkscape-font-specification:'Black Lagoon';fill:#ffffff"
           id="path453" />
        <path
           d="m 142.67026,32.0725 q 0.33866,0.361245 0.33866,0.880534 0,0.135467 -0.0677,0.564445 -0.0452,0.406401 -0.42898,1.264357 -0.38382,0.835379 -0.99342,1.761069 -0.6096,0.903112 -1.26436,1.761068 -0.65475,0.857956 -1.26436,1.580446 -0.58702,0.72249 -0.97084,1.174046 -1.85138,2.212624 -3.31894,3.815648 -1.46755,1.603024 -2.59644,2.731914 -1.10632,1.106312 -1.89654,1.806224 -0.76765,0.677334 -1.28693,1.061157 -0.49672,0.383822 -0.74507,0.519289 -0.22578,0.135467 -0.24836,0.158045 0,0 -0.33866,0.699911 -0.33867,0.677334 -0.83538,1.738491 -0.49671,1.038579 -1.08374,2.302936 -0.58702,1.264357 -1.08373,2.438402 -0.49671,1.151468 -0.8128,2.009425 -0.31609,0.880534 -0.31609,1.241779 0,0.02258 0,0.04516 0,0.338667 -0.13547,0.609601 -0.13547,0.293511 -0.33867,0.474134 -0.22577,0.180622 -0.4064,0.225778 -0.2032,0.06773 -0.33866,0.06773 -0.13547,0 -0.27094,-0.04516 -0.51929,-0.135466 -0.6096,-0.541867 -0.11289,-0.4064 -0.11289,-0.745067 0,-0.338667 0.11289,-0.948268 0.11289,-0.6096 0.49671,-1.603024 0.36125,-0.970845 0.8128,-1.986846 0.42898,-1.016001 0.92569,-1.986847 0.47414,-0.970845 0.85796,-1.73849 0.36125,-0.767645 0.54187,-1.196624 0.2032,-0.428978 0.2032,-0.541867 0,-0.04516 -0.0226,-0.06773 -0.18062,-0.180623 -0.2032,-0.338667 -0.0226,-0.158045 -0.0226,-0.203201 0,-0.2032 0.11289,-0.338667 0.13547,-0.180622 0.24836,-0.248355 0.11289,-0.09031 0.2032,-0.112889 0.11289,-0.02258 0.18062,-0.02258 0.0452,0 0.11289,0.02258 0.0677,0 0.15804,0 0.4064,-0.654757 1.24178,-2.077158 0.85796,-1.444979 2.00943,-3.251203 1.15146,-1.828802 2.50613,-3.838226 1.37725,-2.032003 2.84481,-3.860804 1.46755,-1.828802 2.93511,-3.273782 1.46756,-1.444979 2.79965,-2.122313 0.29351,-0.135467 0.6096,-0.225778 0.31609,-0.09031 0.63218,-0.09031 0.31609,0 0.58702,0.112889 0.29351,0.09031 0.54187,0.338667 z m -11.42437,14.562682 q 2.61902,-2.596448 4.40267,-4.605872 1.80622,-2.032002 2.95769,-3.544715 1.17405,-1.512712 1.78365,-2.551291 0.63218,-1.038579 0.92569,-1.670757 0.29351,-0.654757 0.33867,-0.948268 0.0452,-0.293511 0.0452,-0.293511 0,0 -0.27093,0.09031 -0.27094,0.09031 -0.8128,0.451556 -0.51929,0.361245 -1.33209,1.106312 -0.8128,0.72249 -1.91912,2.009424 -1.10631,1.264357 -2.50613,3.18347 -1.39983,1.919113 -3.09316,4.673605 -1.24178,1.964269 -1.71591,2.754492 -0.47414,0.790223 -0.47414,0.903112 0,0.02258 0.0226,0.02258 0.0903,0 0.49671,-0.428979 0.42898,-0.428978 1.15147,-1.151467 z"
           style="font-weight:normal;font-stretch:normal;font-family:'Black Lagoon';-inkscape-font-specification:'Black Lagoon';fill:#ffffff"
           id="path455" />
        <path
           d="m 144.27327,52.234476 q 0.42898,0.270934 0.42898,0.609601 0,0.09031 -0.11289,0.383822 -0.0903,0.270934 -0.65476,0.677334 -0.56444,0.383823 -1.39982,0.654757 -0.8128,0.270933 -1.6256,0.270933 -0.47414,0 -0.90311,-0.112889 -0.42898,-0.112889 -0.76765,-0.361245 -0.31609,-0.270933 -0.51929,-0.677334 -0.18062,-0.4064 -0.18062,-0.993423 0,-0.06773 -0.0452,-0.06773 -0.0903,0 -0.42897,0.316089 -0.33867,0.293511 -0.99343,0.92569 -0.63218,0.632178 -1.46755,1.399823 -0.81281,0.745068 -1.64818,1.377246 -0.8128,0.609601 -1.44498,0.903112 -0.63218,0.293512 -1.016,0.293512 -0.22578,0 -0.42898,-0.06773 -0.76765,-0.270933 -0.85796,-0.699912 -0.0903,-0.451556 -0.0903,-0.677334 0,-0.496711 0.27093,-1.219201 0.24836,-0.745067 0.88054,-1.73849 0.6096,-1.016002 1.35467,-1.986847 0.74506,-0.970845 1.51271,-1.828802 0.76764,-0.857956 1.33209,-1.422401 0.33867,-0.361245 0.79022,-0.72249 0.45156,-0.361245 0.92569,-0.654756 0.47414,-0.316089 0.94827,-0.496712 0.49671,-0.2032 0.92569,-0.2032 0.31609,0 0.56444,0.09031 0.24836,0.09031 0.45156,0.338667 0.27093,0.293512 0.29351,0.51929 0.0226,0.2032 0.0226,0.293511 0,0.248356 -0.0903,0.541867 -0.0677,0.293512 -0.24836,0.609601 -0.15804,0.316089 -0.29351,0.564445 -0.13547,0.225778 -0.2032,0.338667 -0.0452,0.112889 -0.0452,0.135467 0,0.04515 0.0452,0.04515 0.22578,0 0.49671,0.248356 0.27094,0.248356 0.33867,0.496712 0.0677,0.248356 0.0677,0.541867 0,0.158045 -0.0451,0.496712 -0.0452,0.316089 -0.0903,0.6096 -0.0226,0.293512 -0.0226,0.428978 0,0.248356 0.0677,0.474134 0.0677,0.225778 0.47414,0.225778 0.18062,0 0.49671,-0.06773 0.33866,-0.09031 0.69991,-0.2032 0.38382,-0.112889 0.72249,-0.248356 0.36124,-0.158045 0.6096,-0.293512 0.36124,-0.180622 0.56444,-0.180622 0.15805,0 0.33867,0.112889 z m -6.00569,-1.964269 q 0.0226,-0.02258 0.0226,-0.06773 0,-0.02258 -0.0677,-0.04516 -0.0452,-0.04515 -0.13547,-0.135466 -0.0903,-0.112889 -0.11289,-0.225778 -0.0226,-0.112889 -0.0226,-0.158045 0,-0.180622 0.11289,-0.474134 l 0.11288,-0.293511 -0.2032,0.158044 q -0.2032,0.158045 -0.49671,0.474134 -0.29351,0.293512 -0.63218,0.677334 -0.31608,0.361245 -0.67733,0.790223 -0.33867,0.428978 -0.67733,0.857957 -0.79023,0.970845 -1.64818,2.122313 0.0677,-0.06773 0.0903,-0.06773 0.0452,-0.02258 0.13546,-0.09031 0.0903,-0.06773 0.29352,-0.225778 0.2032,-0.158044 0.6096,-0.474133 0.65475,-0.51929 1.12889,-0.92569 0.49671,-0.406401 0.88053,-0.745068 0.38382,-0.338667 0.67734,-0.6096 0.31608,-0.293512 0.6096,-0.541868 z"
           style="font-weight:normal;font-stretch:normal;font-family:'Black Lagoon';-inkscape-font-specification:'Black Lagoon';fill:#ffffff"
           id="path457" />
        <path
           d="m 147.07293,53.724611 q -0.65476,1.151468 -0.99343,1.580446 -0.31609,0.428978 -0.31609,0.474134 0,0 0,0 0.0226,0 0.2032,-0.135467 0.18063,-0.135467 0.54187,-0.338667 0.36125,-0.2032 0.90311,-0.451556 0.54187,-0.270934 1.28694,-0.519289 0.47413,-0.158045 0.83538,-0.158045 0.58702,0 0.69991,0.248356 0.13547,0.248356 0.13547,0.4064 0,0.158045 -0.0677,0.293512 -0.0903,0.2032 -0.2032,0.225778 -0.11289,0.02258 -0.38382,0.06773 -0.24836,0.04516 -0.74507,0.2032 -0.49671,0.135467 -1.35467,0.564445 -0.99342,0.496712 -1.64818,0.92569 -0.63217,0.4064 -1.03857,0.699912 -0.40641,0.293511 -0.65476,0.451556 -0.22578,0.158044 -0.42898,0.158044 -0.13547,0 -0.29351,-0.09031 -0.27093,-0.158044 -0.27093,-0.451556 0,-0.112889 0.0677,-0.383822 0.0677,-0.293512 0.47413,-0.948268 0.4064,-0.654756 0.99343,-1.512713 0.58702,-0.857956 1.15146,-1.828801 0.0452,-0.06773 0.0452,-0.135467 0,-0.02258 -0.0226,-0.06773 -0.0226,-0.06773 -0.0677,-0.158044 -0.0452,-0.09031 -0.0677,-0.158045 0,-0.06773 0,-0.09031 0,-0.112889 0.0677,-0.248356 0.0903,-0.2032 0.47413,-0.293511 0.13547,-0.04516 0.29351,-0.338667 0.18063,-0.31609 0.31609,-0.677334 0.13547,-0.383823 0.22578,-0.745068 0.11289,-0.361245 0.13547,-0.519289 0.0226,-0.09031 0.0226,-0.135467 0,-0.09031 -0.0226,-0.09031 -0.0226,-0.02258 -0.0226,-0.02258 -0.0903,0 -0.42898,0.158045 -0.69991,0.293511 -1.28693,0.722489 -0.56445,0.428978 -0.97085,0.835379 -0.38382,0.383822 -0.56444,0.632178 -0.15805,0.248356 -0.15805,0.293512 0,0 0,0 0.11289,0 0.29351,-0.06773 0.2032,-0.06773 0.38383,-0.06773 0.22577,0 0.36124,0.135467 0.15805,0.158044 0.15805,0.293511 0,0.04516 -0.0452,0.158045 -0.0226,0.09031 -0.22578,0.225778 -0.18062,0.112889 -0.47413,0.2032 -0.29351,0.06773 -0.56445,0.06773 -0.18062,0 -0.36124,-0.02258 -0.15805,-0.04516 -0.27094,-0.158045 -0.31608,-0.270934 -0.31608,-0.654756 0,-0.180623 0.15804,-0.609601 0.18062,-0.428978 0.8128,-1.061157 0.63218,-0.654756 1.44498,-1.196623 0.8128,-0.541867 1.39982,-0.812801 0.56445,-0.248356 0.92569,-0.248356 0.45156,0 0.67734,0.293512 0.22578,0.293511 0.22578,0.587023 0.0226,0.270933 0.0226,0.338667 0,0.451556 -0.13546,1.061156 -0.13547,0.587023 -0.42898,1.286935 0,0 0,0 0,0.06773 0.29351,0.06773 0.45156,0 1.4224,-0.06773 0.97085,-0.06773 2.28036,-0.06773 0.11289,0 0.24835,0 0.13547,0 0.24836,0.06773 0.13547,0.04515 0.22578,0.158044 0.0903,0.112889 0.0903,0.338667 0,0.293512 -0.2032,0.428979 -0.18062,0.135467 -0.76765,0.2032 -0.58702,0.06773 -1.64817,0.112889 -1.06116,0.02258 -2.82223,0.09031 z"
           style="font-weight:normal;font-stretch:normal;font-family:'Black Lagoon';-inkscape-font-specification:'Black Lagoon';fill:#ffffff"
           id="path459" />
        <path
           d="m 164.41267,52.234476 q 0.42898,0.270934 0.42898,0.609601 0,0.09031 -0.11289,0.383822 -0.0903,0.270934 -0.65476,0.677334 -0.56444,0.383823 -1.39982,0.654757 -0.8128,0.270933 -1.6256,0.270933 -0.47414,0 -0.90312,-0.112889 -0.42897,-0.112889 -0.76764,-0.361245 -0.31609,-0.270933 -0.51929,-0.677334 -0.18062,-0.4064 -0.18062,-0.993423 0,-0.06773 -0.0452,-0.06773 -0.0903,0 -0.42898,0.316089 -0.33866,0.293511 -0.99342,0.92569 -0.63218,0.632178 -1.46756,1.399823 -0.8128,0.745068 -1.64818,1.377246 -0.8128,0.609601 -1.44498,0.903112 -0.63218,0.293512 -1.016,0.293512 -0.22578,0 -0.42898,-0.06773 -0.76764,-0.270933 -0.85795,-0.699912 -0.0903,-0.451556 -0.0903,-0.677334 0,-0.496711 0.27093,-1.219201 0.24836,-0.745067 0.88053,-1.73849 0.6096,-1.016002 1.35467,-1.986847 0.74507,-0.970845 1.51272,-1.828802 0.76764,-0.857956 1.33209,-1.422401 0.33866,-0.361245 0.79022,-0.72249 0.45155,-0.361245 0.92569,-0.654756 0.47413,-0.316089 0.94827,-0.496712 0.49671,-0.2032 0.92569,-0.2032 0.31608,0 0.56444,0.09031 0.24836,0.09031 0.45156,0.338667 0.27093,0.293512 0.29351,0.51929 0.0226,0.2032 0.0226,0.293511 0,0.248356 -0.0903,0.541867 -0.0677,0.293512 -0.24835,0.609601 -0.15805,0.316089 -0.29351,0.564445 -0.13547,0.225778 -0.2032,0.338667 -0.0452,0.112889 -0.0452,0.135467 0,0.04515 0.0452,0.04515 0.22578,0 0.49671,0.248356 0.27093,0.248356 0.33867,0.496712 0.0677,0.248356 0.0677,0.541867 0,0.158045 -0.0452,0.496712 -0.0452,0.316089 -0.0903,0.6096 -0.0226,0.293512 -0.0226,0.428978 0,0.248356 0.0677,0.474134 0.0677,0.225778 0.47413,0.225778 0.18062,0 0.49671,-0.06773 0.33867,-0.09031 0.69992,-0.2032 0.38382,-0.112889 0.72248,-0.248356 0.36125,-0.158045 0.60961,-0.293512 0.36124,-0.180622 0.56444,-0.180622 0.15805,0 0.33867,0.112889 z m -6.0057,-1.964269 q 0.0226,-0.02258 0.0226,-0.06773 0,-0.02258 -0.0677,-0.04516 -0.0452,-0.04515 -0.13547,-0.135466 -0.0903,-0.112889 -0.11289,-0.225778 -0.0226,-0.112889 -0.0226,-0.158045 0,-0.180622 0.11289,-0.474134 l 0.11289,-0.293511 -0.2032,0.158044 q -0.2032,0.158045 -0.49671,0.474134 -0.29351,0.293512 -0.63218,0.677334 -0.31609,0.361245 -0.67733,0.790223 -0.33867,0.428978 -0.67734,0.857957 -0.79022,0.970845 -1.64818,2.122313 0.0677,-0.06773 0.0903,-0.06773 0.0452,-0.02258 0.13547,-0.09031 0.0903,-0.06773 0.29351,-0.225778 0.2032,-0.158044 0.6096,-0.474133 0.65476,-0.51929 1.12889,-0.92569 0.49672,-0.406401 0.88054,-0.745068 0.38382,-0.338667 0.67733,-0.6096 0.31609,-0.293512 0.6096,-0.541868 z"
           style="font-weight:normal;font-stretch:normal;font-family:'Black Lagoon';-inkscape-font-specification:'Black Lagoon';fill:#ffffff"
           id="path461" />
        <path
           d="m 173.37607,52.031276 q 0.11289,0.158044 0.11289,0.316089 0,0.112889 -0.11289,0.316089 -0.11289,0.180623 -0.45156,0.383823 -0.33866,0.2032 -0.79022,0.383823 -0.42898,0.158044 -0.76764,0.270933 -0.76765,0.248356 -1.37725,0.383823 -0.58702,0.112889 -1.016,0.158044 -0.4064,0.02258 -0.65476,0.02258 -0.24835,0 -0.31609,0 -0.36124,0.632179 -0.74506,1.33209 -0.38383,0.699912 -0.79023,1.264357 -0.38382,0.564445 -0.72249,0.857957 -0.31609,0.270933 -0.58702,0.270933 -0.11289,0 -0.22578,-0.04516 -0.31609,-0.112889 -0.42898,-0.383823 -0.11288,-0.293511 -0.2032,-0.790223 -0.0903,-0.496712 -0.27093,-1.241779 -0.18062,-0.745067 -0.63218,-1.783646 -0.2032,-0.451556 -0.31609,-0.745068 -0.11289,-0.293511 -0.15804,-0.451556 -0.0452,-0.180622 -0.0452,-0.293511 0,-0.04516 0.0226,-0.135467 0,-0.09031 0.0677,-0.225778 0.11289,-0.225778 0.27094,-0.316089 0.18062,-0.112889 0.36124,-0.112889 0.33867,0 0.47414,0.248356 0.0903,0.158044 0.27093,0.248355 0.18062,0.06773 0.22578,0.112889 0.0452,-0.04516 0.27093,-0.293511 0.24836,-0.248356 0.58702,-0.587023 0.36125,-0.338667 0.76765,-0.699912 0.42898,-0.383822 0.83538,-0.699911 0.42898,-0.31609 0.8128,-0.51929 0.4064,-0.225778 0.67733,-0.225778 0.54187,0 0.74507,0.293512 0.2032,0.270933 0.2032,0.519289 0.0226,0.225778 0.0226,0.248356 0,0.428978 -0.15805,0.903112 -0.13546,0.474134 -0.29351,0.92569 -0.15804,0.428978 -0.29351,0.699912 -0.11289,0.270933 -0.11289,0.316089 0,0.02258 0,0.02258 0.0226,0 0.0452,0 0.11289,0 0.42898,-0.04516 0.33866,-0.04516 0.90311,-0.180622 0.56444,-0.135467 1.19662,-0.31609 0.63218,-0.2032 1.15147,-0.451556 0.4064,-0.2032 0.63218,-0.2032 0.24835,0 0.38382,0.248356 z m -6.25405,0.632178 q 0.31609,-0.767645 0.42898,-1.038579 0.13546,-0.270933 0.13546,-0.361244 0,-0.04516 -0.0452,-0.04516 -0.0903,0 -0.33867,0.225778 -0.22578,0.225778 -0.67733,0.609601 -0.42898,0.383822 -0.45156,0.451556 0,0.04516 0,0.04516 0,0.112889 0.33867,0.203201 0.15804,0.04516 0.24835,0.06773 0.0903,0.02258 0.15805,0.02258 0.13547,0 0.2032,-0.180623 z m -1.51271,3.115737 q 0.0903,-0.180623 0.24835,-0.451556 0.15805,-0.293512 0.29351,-0.564445 0.15805,-0.270934 0.24836,-0.474134 0.11289,-0.225778 0.11289,-0.225778 0,-0.04516 -0.24836,-0.09031 -0.24835,-0.06773 -0.72249,-0.225778 -0.6096,-0.2032 -0.76764,-0.2032 -0.13547,0 -0.13547,0.09031 0,0.02258 0.0226,0.112889 0.0226,0.06773 0.13547,0.361245 0.11289,0.293511 0.27093,0.745067 0.15804,0.451556 0.24836,1.083734 0.0452,0.225778 0.0677,0.225778 0,0 0,0 0.0226,-0.02258 0.22578,-0.383822 z"
           style="font-weight:normal;font-stretch:normal;font-family:'Black Lagoon';-inkscape-font-specification:'Black Lagoon';fill:#ffffff"
           id="path463" />
      </g>
    </g>
  </g>
</svg>
